<?xml version="1.0" encoding="utf-8"?>
<!-- Generator: Adobe Illustrator 16.2.1, SVG Export Plug-In . SVG Version: 6.00 Build 0)  -->
<!DOCTYPE svg [
	<!ENTITY ns_flows "http://ns.adobe.com/Flows/1.0/">
	<!ENTITY ns_extend "http://ns.adobe.com/Extensibility/1.0/">
	<!ENTITY ns_ai "http://ns.adobe.com/AdobeIllustrator/10.0/">
	<!ENTITY ns_graphs "http://ns.adobe.com/Graphs/1.0/">
	<!ENTITY ns_vars "http://ns.adobe.com/Variables/1.0/">
	<!ENTITY ns_imrep "http://ns.adobe.com/ImageReplacement/1.0/">
	<!ENTITY ns_sfw "http://ns.adobe.com/SaveForWeb/1.0/">
	<!ENTITY ns_custom "http://ns.adobe.com/GenericCustomNamespace/1.0/">
	<!ENTITY ns_adobe_xpath "http://ns.adobe.com/XPath/1.0/">
]>
<svg version="1.2" baseProfile="tiny" id="Layer_1" xmlns:x="&ns_extend;" xmlns:i="&ns_ai;" xmlns:graph="&ns_graphs;"
	 xmlns="http://www.w3.org/2000/svg" xmlns:xlink="http://www.w3.org/1999/xlink" xmlns:a="http://ns.adobe.com/AdobeSVGViewerExtensions/3.0/"
	 x="0px" y="0px" width="182px" height="182px" viewBox="0 0 182 182" xml:space="preserve">
<metadata>
	<sfw  xmlns="&ns_sfw;">
		<slices></slices>
		<sliceSourceBounds  width="182" height="182" bottomLeftOrigin="true" y="-491" x="309"></sliceSourceBounds>
	</sfw>
</metadata>
<path d="M0,0v182h182V0H0z M52.5,39.7h10l16.7,68.2l5.7-23.2L88,97.4l-6.3,24.9h-5.5L59.1,52.2v71.3h-6.6V39.7z M59.6,142.2l-1.1,0
	l-1.9-6.4l-1.8,6.5l-1.1,0l-1.7-8l0.9,0l1.3,6.5l1.8-6.4l0.9,0l1.9,6.4l1.2-6.5l0.9,0L59.6,142.2z M63.8,142.3l-0.1-7.9l1,0l0.1,6.7
	h0l0,1.2L63.8,142.3z M67.8,142.3l-0.1-7.9l1,0l0.1,7l3.8,0l0,0.9L67.8,142.3z M74.4,142.2l-0.1-7.9l1,0l0.1,7l3.8,0l0,0.9
	L74.4,142.2z M81.2,142.1l-0.1-7.9l1,0l0.1,7.9L81.2,142.1z M85.3,142.1l-0.1-7.9l5.3-0.1l0,0.9l-4.3,0l0,2.4l3.8,0l0,0.9l-3.8,0
	l0,2.7l4.3,0l0,0.9L85.3,142.1z M105,141.8l-0.1-7.1l-2.6,7l-0.7,0l-2.8-7.2l0.2,7.3l-0.8,0l-0.1-7.8l1.3,0l2.5,6.6l2.4-6.7l1.3,0
	l0.1,7.8L105,141.8z M113.1,141.8l-0.7-1.9l-2.7,0l0.3-0.9l2,0l-1.4-4.1l-1.3,4.1h0l-0.9,2.8l-1,0l2.7-7.9l1.2,0l2.9,7.9
	L113.1,141.8z M120.7,141c-0.5,0.5-1.2,0.9-2.1,0.9c-0.8,0-1.6-0.3-2.1-0.8c-0.9-0.8-1-2-1-3.2c0-1.3,0.1-2.4,1-3.3
	c0.6-0.6,1.3-0.9,2.1-0.9c0.9,0,1.6,0.3,2.1,0.8c0.5,0.5,0.8,1.1,0.8,1.8l-1,0c0-0.4-0.2-0.8-0.4-1.1c-0.3-0.3-0.8-0.6-1.4-0.6
	c-0.5,0-1.1,0.2-1.4,0.6c-0.6,0.7-0.7,1.7-0.6,2.6c0,0.8,0,1.9,0.7,2.5c0.4,0.4,0.9,0.6,1.4,0.6c0.6,0,1.1-0.3,1.4-0.6
	c0.3-0.3,0.4-0.7,0.4-1.1l1,0C121.4,139.9,121.1,140.6,120.7,141z M105.7,122.3h-5.5L79.4,39.7H83h3.1L91,59.4l4.8-19.7H99h3.6
	l-8.3,33.1l8.6,35.1l16.7-68.2h10v83.8h-6.6V52.2L105.7,122.3z M123.8,141.7l-0.1-7.9l1,0l0,4.2l3.6-4.2l1.2,0l-4.8,5.7l0,2.2
	L123.8,141.7z M128.7,141.6l-2-3.4l0.7-0.8l2.5,4.1L128.7,141.6z"/>
<g>
</g>
<g>
</g>
<g>
</g>
<g>
</g>
<g>
</g>
<g>
</g>
</svg>
